<svg xmlns="http://www.w3.org/2000/svg" width="400" height="400" viewBox="0 0 400 400">
  <g fill="none" stroke="#F97316" stroke-width="4" stroke-linecap="round" stroke-linejoin="round">
    <!-- Browser window -->
    <rect x="100" y="150" width="200" height="100" rx="8"/>

    <!-- Header “dots” and title bar line -->
    <circle cx="120" cy="170" r="4"/>
    <circle cx="140" cy="170" r="4"/>
    <circle cx="160" cy="170" r="4"/>
    <line   x1="180" y1="170" x2="280" y2="170"/>

    <!-- Top connections -->
    <line x1="140" y1="150" x2="140" y2="100"/>
    <line x1="170" y1="150" x2="170" y2="100"/>
    <line x1="200" y1="150" x2="200" y2="100"/>
    <line x1="230" y1="150" x2="230" y2="100"/>
    <line x1="260" y1="150" x2="260" y2="100"/>

    <!-- Circles at top -->
    <circle cx="140" cy="100" r="8"/>
    <circle cx="170" cy="100" r="8"/>
    <circle cx="200" cy="100" r="8"/>
    <circle cx="230" cy="100" r="8"/>
    <circle cx="260" cy="100" r="8"/>

    <!-- Bottom vertical lines -->
    <line x1="140" y1="250" x2="140" y2="270"/>
    <line x1="170" y1="250" x2="170" y2="290"/>
    <line x1="200" y1="250" x2="200" y2="330"/>
    <line x1="230" y1="250" x2="230" y2="290"/>
    <line x1="260" y1="250" x2="260" y2="270"/>
  </g>
</svg>


