<svg xmlns="http://www.w3.org/2000/svg" width="400" height="400" viewBox="0 0 400 400">
  <defs>
    <!-- Gradient for the squircle background -->
    <radialGradient id="bgGradient" cx="50%" cy="50%" r="60%">
      <stop offset="0%" stop-color="#FFF1E0"/>
      <stop offset="100%" stop-color="#FFD1A8"/>
    </radialGradient>
    <!-- Drop shadow filter -->
    <filter id="dropShadow" x="-20%" y="-20%" width="140%" height="140%">
      <feOffset dx="6" dy="6" in="SourceAlpha" result="off"/>
      <feGaussianBlur in="off" stdDeviation="6" result="blur"/>
      <feColorMatrix in="blur" type="matrix"
        values="0 0 0 0 0
                0 0 0 0 0
                0 0 0 0 0
                0 0 0 0.3 0" result="shadow"/>
      <feBlend in="SourceGraphic" in2="shadow" mode="normal"/>
    </filter>
  </defs>

  <!-- 10% padding: everything inside a 320×320 box -->
  <g transform="translate(40,40) scale(0.8)">
    <!-- 3D squircle with gradient fill + shadow -->
    <rect
      x="2" y="2" width="396" height="396"
      rx="80" ry="80"
      fill="url(#bgGradient)"
      stroke="#FFA952"
      stroke-width="4"
      filter="url(#dropShadow)"
    />

    <!-- glyph with its own shadow -->
    <g filter="url(#dropShadow)" fill="none" stroke="#E67E22" stroke-width="4" stroke-linecap="round" stroke-linejoin="round">
      <!-- Browser window -->
      <rect x="80" y="140" width="240" height="120" rx="10"/>

      <!-- Header dots & title bar line -->
      <circle cx="104" cy="164" r="5"/>
      <circle cx="128" cy="164" r="5"/>
      <circle cx="152" cy="164" r="5"/>
      <line   x1="176" y1="164" x2="296" y2="164"/>

      <!-- Top connectors -->
      <line x1="128" y1="140" x2="128" y2="80"/>
      <line x1="164" y1="140" x2="164" y2="80"/>
      <line x1="200" y1="140" x2="200" y2="80"/>
      <line x1="236" y1="140" x2="236" y2="80"/>
      <line x1="272" y1="140" x2="272" y2="80"/>

      <!-- Top node circles -->
      <circle cx="128" cy="80"  r="10"/>
      <circle cx="164" cy="80"  r="10"/>
      <circle cx="200" cy="80"  r="10"/>
      <circle cx="236" cy="80"  r="10"/>
      <circle cx="272" cy="80"  r="10"/>

      <!-- Bottom pins -->
      <line x1="128" y1="260" x2="128" y2="284"/>
      <line x1="164" y1="260" x2="164" y2="308"/>
      <line x1="200" y1="260" x2="200" y2="356"/>
      <line x1="236" y1="260" x2="236" y2="308"/>
      <line x1="272" y1="260" x2="272" y2="284"/>
    </g>
  </g>
</svg>
